<svg xmlns="http://www.w3.org/2000/svg" viewBox="0 0 100 100">
  <defs>
    <clipPath id="ball-clip">
      <circle cx="50" cy="50" r="47" />
    </clipPath>
  </defs>
  <circle cx="50" cy="50" r="47" fill="#ffffff" />
  <g clip-path="url(#ball-clip)">
    <g>
      <path d="M50 4 C 63 4, 75 12, 78 26 C 70 37, 59 42, 50 40 C 41 42, 30 37, 22 26 C 25 12, 37 4, 50 4 Z" fill="#1c7ed6" />
      <path d="M33 12 C 43 8, 57 8, 67 12" stroke="#1255a3" stroke-width="2.4" fill="none" />
      <path d="M27 20 C 40 14, 60 14, 73 20" stroke="#1255a3" stroke-width="2.4" fill="none" />
      <rect x="46.6" y="26" width="6.8" height="6.8" fill="#ffffff" transform="rotate(45 50 29.4)" />
    </g>
    <g transform="rotate(120 50 50)">
      <path d="M50 4 C 63 4, 75 12, 78 26 C 70 37, 59 42, 50 40 C 41 42, 30 37, 22 26 C 25 12, 37 4, 50 4 Z" fill="#d6336c" />
      <path d="M33 12 C 43 8, 57 8, 67 12" stroke="#9c1c43" stroke-width="2.4" fill="none" />
      <path d="M27 20 C 40 14, 60 14, 73 20" stroke="#9c1c43" stroke-width="2.4" fill="none" />
    </g>
    <g transform="rotate(240 50 50)">
      <path d="M50 4 C 63 4, 75 12, 78 26 C 70 37, 59 42, 50 40 C 41 42, 30 37, 22 26 C 25 12, 37 4, 50 4 Z" fill="#2f9e44" />
      <path d="M33 12 C 43 8, 57 8, 67 12" stroke="#1d6b2e" stroke-width="2.4" fill="none" />
      <path d="M27 20 C 40 14, 60 14, 73 20" stroke="#1d6b2e" stroke-width="2.4" fill="none" />
    </g>
    <g stroke="#16265c" stroke-width="4.5" fill="none" stroke-linecap="round">
      <path d="M79 25 C 90 40, 90 58, 78 70" />
      <path d="M79 25 C 90 40, 90 58, 78 70" transform="rotate(120 50 50)" />
      <path d="M79 25 C 90 40, 90 58, 78 70" transform="rotate(240 50 50)" />
    </g>
  </g>
  <circle cx="50" cy="50" r="47" fill="none" stroke="#334155" stroke-width="2.5" />
</svg>
